<svg xmlns="http://www.w3.org/2000/svg" viewBox="0 0 140 185" width="140" height="185">
  <!-- Ground line -->
  <line x1="15" y1="176" x2="125" y2="176" stroke="#1a1a1a" stroke-width="1.0"/>

  <!-- Roots -->
  <line x1="70" y1="172" x2="48" y2="178" stroke="#1a1a1a" stroke-width="2.5" stroke-linecap="round"/>
  <line x1="70" y1="172" x2="92" y2="178" stroke="#1a1a1a" stroke-width="2.5" stroke-linecap="round"/>
  <line x1="55" y1="176" x2="38" y2="182" stroke="#1a1a1a" stroke-width="1.5" stroke-linecap="round"/>
  <line x1="85" y1="176" x2="102" y2="182" stroke="#1a1a1a" stroke-width="1.5" stroke-linecap="round"/>

  <!-- Trunk -->
  <line x1="70" y1="176" x2="70" y2="108" stroke="#1a1a1a" stroke-width="9" stroke-linecap="round"/>
  <!-- Trunk bark lines -->
  <line x1="65" y1="168" x2="75" y2="163" stroke="#1a1a1a" stroke-width="0.7" opacity="0.65"/>
  <line x1="65" y1="152" x2="75" y2="147" stroke="#1a1a1a" stroke-width="0.7" opacity="0.65"/>
  <line x1="65" y1="136" x2="75" y2="131" stroke="#1a1a1a" stroke-width="0.7" opacity="0.65"/>
  <line x1="65" y1="120" x2="75" y2="115" stroke="#1a1a1a" stroke-width="0.7" opacity="0.65"/>

  <!-- Main branches -->
  <line x1="70" y1="108" x2="28" y2="68" stroke="#1a1a1a" stroke-width="5" stroke-linecap="round"/>
  <line x1="70" y1="108" x2="70" y2="58" stroke="#1a1a1a" stroke-width="4.5" stroke-linecap="round"/>
  <line x1="70" y1="108" x2="112" y2="68" stroke="#1a1a1a" stroke-width="5" stroke-linecap="round"/>

  <!-- Secondary branches -->
  <line x1="28" y1="68" x2="10" y2="40" stroke="#1a1a1a" stroke-width="2.5" stroke-linecap="round"/>
  <line x1="28" y1="68" x2="42" y2="38" stroke="#1a1a1a" stroke-width="2.5" stroke-linecap="round"/>
  <line x1="70" y1="58" x2="56" y2="30" stroke="#1a1a1a" stroke-width="2.5" stroke-linecap="round"/>
  <line x1="70" y1="58" x2="84" y2="30" stroke="#1a1a1a" stroke-width="2.5" stroke-linecap="round"/>
  <line x1="112" y1="68" x2="98" y2="38" stroke="#1a1a1a" stroke-width="2.5" stroke-linecap="round"/>
  <line x1="112" y1="68" x2="130" y2="40" stroke="#1a1a1a" stroke-width="2.5" stroke-linecap="round"/>

  <!-- Twigs -->
  <line x1="10" y1="40" x2="3" y2="22" stroke="#1a1a1a" stroke-width="1.2" stroke-linecap="round"/>
  <line x1="10" y1="40" x2="16" y2="20" stroke="#1a1a1a" stroke-width="1.2" stroke-linecap="round"/>
  <line x1="42" y1="38" x2="34" y2="18" stroke="#1a1a1a" stroke-width="1.2" stroke-linecap="round"/>
  <line x1="42" y1="38" x2="50" y2="16" stroke="#1a1a1a" stroke-width="1.2" stroke-linecap="round"/>
  <line x1="56" y1="30" x2="48" y2="10" stroke="#1a1a1a" stroke-width="1.2" stroke-linecap="round"/>
  <line x1="56" y1="30" x2="58" y2="8" stroke="#1a1a1a" stroke-width="1.2" stroke-linecap="round"/>
  <line x1="84" y1="30" x2="82" y2="8" stroke="#1a1a1a" stroke-width="1.2" stroke-linecap="round"/>
  <line x1="84" y1="30" x2="92" y2="10" stroke="#1a1a1a" stroke-width="1.2" stroke-linecap="round"/>
  <line x1="98" y1="38" x2="90" y2="18" stroke="#1a1a1a" stroke-width="1.2" stroke-linecap="round"/>
  <line x1="98" y1="38" x2="102" y2="16" stroke="#1a1a1a" stroke-width="1.2" stroke-linecap="round"/>
  <line x1="130" y1="40" x2="124" y2="20" stroke="#1a1a1a" stroke-width="1.2" stroke-linecap="round"/>
  <line x1="130" y1="40" x2="137" y2="22" stroke="#1a1a1a" stroke-width="1.2" stroke-linecap="round"/>
</svg>
